<svg width="20" height="21" viewBox="0 0 20 21" fill="#ffffff" xmlns="http://www.w3.org/2000/svg"><path d="M1.47978 10.2992L5.15826 11.6709L6.59223 16.2845C6.65458 16.5963 7.02866 16.6586 7.27805 16.4716L9.33549 14.7882C9.52253 14.6012 9.83427 14.6012 10.0837 14.7882L13.7621 17.4691C14.0115 17.6562 14.3856 17.5315 14.4479 17.2197L17.1912 4.1269C17.2535 3.81517 16.9418 3.50343 16.6301 3.62813L1.47978 9.48873C1.1057 9.61343 1.1057 10.1745 1.47978 10.2992ZM6.4052 10.9851L13.6374 6.55843C13.7621 6.49608 13.8868 6.68312 13.7621 6.74547L7.83917 12.2943C7.65213 12.4814 7.46508 12.7308 7.46508 13.0425L7.27805 14.5388C7.27805 14.7259 6.96631 14.7882 6.90396 14.5388L6.15579 11.7956C5.96875 11.4838 6.09346 11.1097 6.4052 10.9851Z" fill="#ffffff"></path></svg>