<svg width="20" height="21" viewBox="0 0 20 21" fill="none" xmlns="http://www.w3.org/2000/svg"><path d="M16.3415 3.64983C14.761 2.07483 12.6537 1.19983 10.4293 1.19983C5.80488 1.19983 2.05854 4.93316 2.05854 9.5415C2.05854 10.9998 2.46829 12.4582 3.17073 13.6832L2 17.9998L6.44878 16.8332C7.67805 17.4748 9.02439 17.8248 10.4293 17.8248C15.0537 17.8248 18.8 14.0915 18.8 9.48316C18.7415 7.32483 17.9219 5.22483 16.3415 3.64983ZM14.4683 12.5165C14.2927 12.9832 13.4732 13.4498 13.0634 13.5082C12.7122 13.5665 12.2439 13.5665 11.7756 13.4498C11.4829 13.3332 11.0732 13.2165 10.6049 12.9832C8.49756 12.1082 7.15122 10.0082 7.03415 9.83316C6.91707 9.71649 6.1561 8.72483 6.1561 7.67483C6.1561 6.62483 6.68293 6.15816 6.85854 5.92483C7.03415 5.69149 7.26829 5.69149 7.4439 5.69149C7.56098 5.69149 7.73658 5.69149 7.85366 5.69149C7.97073 5.69149 8.14634 5.63316 8.32195 6.0415C8.49756 6.44983 8.90732 7.49983 8.96585 7.55816C9.02439 7.67483 9.02439 7.7915 8.96585 7.90816C8.90732 8.02483 8.84878 8.14149 8.7317 8.25816C8.61463 8.37483 8.49756 8.54983 8.43902 8.60816C8.32195 8.72483 8.20488 8.84149 8.32195 9.01649C8.43902 9.24983 8.84878 9.89149 9.49268 10.4748C10.3122 11.1748 10.9561 11.4082 11.1902 11.5248C11.4244 11.6415 11.5415 11.5832 11.6585 11.4665C11.7756 11.3498 12.1854 10.8832 12.3024 10.6498C12.4195 10.4165 12.5951 10.4748 12.7707 10.5332C12.9463 10.5915 14 11.1165 14.1756 11.2332C14.4098 11.3498 14.5268 11.4082 14.5854 11.4665C14.6439 11.6415 14.6439 12.0498 14.4683 12.5165Z" fill="#ffffff"></path></svg>