<svg width="20" height="21" viewBox="0 0 20 21" fill="none" xmlns="http://www.w3.org/2000/svg"><path d="M15.0031 2.43698C11.9539 1.85467 8.78743 1.85467 5.73822 2.43698C4.38953 2.72813 2.68901 4.35859 2.39581 5.63967C1.86806 8.14359 1.86806 10.7057 2.39581 13.2097C2.74764 14.4907 4.44817 16.1212 5.73822 16.4124C5.79686 16.4124 5.85549 16.4706 5.85549 16.5288V20.1974C5.85549 20.3721 6.09005 20.4885 6.20733 20.3138L7.96649 18.5087C7.96649 18.5087 9.37382 17.0529 9.60838 16.82C9.60838 16.82 9.66702 16.7618 9.72566 16.7618C11.4848 16.82 13.3026 16.6453 15.0618 16.3541C16.4105 16.063 18.111 14.4325 18.4042 13.1514C18.9319 10.6475 18.9319 8.08536 18.4042 5.58144C18.0524 4.35859 16.3518 2.72813 15.0031 2.43698ZM15.0618 13.3844C14.7686 13.9667 14.4168 14.4325 13.8304 14.7237C13.6545 14.7819 13.4785 14.8401 13.3026 14.8984C13.0681 14.8401 12.8921 14.7819 12.7162 14.7237C10.8398 13.9667 9.08063 12.9185 7.6733 11.4045C6.911 10.5311 6.26597 9.54113 5.73822 8.49298C5.50366 7.9689 5.26911 7.50305 5.09319 6.97898C4.91728 6.51313 5.21047 6.04728 5.50366 5.6979C5.79686 5.34852 6.14869 5.11559 6.55916 4.9409C6.85236 4.76621 7.14555 4.88267 7.38011 5.11559C7.84922 5.6979 8.31832 6.28021 8.67016 6.92075C8.90471 7.32836 8.84607 7.79421 8.4356 8.08536C8.31832 8.14359 8.25968 8.20182 8.14241 8.31829C8.08377 8.37652 7.96649 8.43475 7.90785 8.55121C7.79057 8.7259 7.79057 8.90059 7.84921 9.07529C8.31832 10.4146 9.1979 11.4627 10.5466 12.0451C10.7811 12.1615 10.9571 12.2197 11.2503 12.2197C11.6607 12.1615 11.8366 11.6957 12.1298 11.4627C12.423 11.2298 12.7749 11.2298 13.1267 11.4045C13.4199 11.5792 13.7131 11.8121 14.0649 12.0451C14.3581 12.278 14.6513 12.4527 14.9445 12.6856C15.1204 12.8021 15.1791 13.0932 15.0618 13.3844ZM12.599 9.01706C12.4817 9.01706 12.5403 9.01706 12.599 9.01706C12.3644 9.01706 12.3058 8.90059 12.2471 8.7259C12.2471 8.60944 12.2471 8.43475 12.1885 8.31829C12.1298 8.08536 12.0126 7.85244 11.778 7.67775C11.6607 7.61952 11.5435 7.56128 11.4262 7.50305C11.2503 7.44482 11.133 7.44482 10.9571 7.44482C10.7812 7.38659 10.7225 7.27013 10.7225 7.09544C10.7225 6.97898 10.8984 6.86252 11.0157 6.86252C11.9539 6.92075 12.6576 7.44482 12.7749 8.55121C12.7749 8.60944 12.7749 8.7259 12.7749 8.78413C12.7749 8.90059 12.7162 9.01706 12.599 9.01706ZM12.0126 6.4549C11.7194 6.33844 11.4262 6.22198 11.0743 6.16375C10.9571 6.16375 10.7812 6.10551 10.6639 6.10551C10.488 6.10551 10.3707 5.98905 10.4293 5.81436C10.4293 5.63967 10.5466 5.52321 10.7225 5.58144C11.3089 5.63967 11.8366 5.75613 12.3644 5.98905C13.4199 6.51313 14.0063 7.38659 14.1822 8.55121C14.1822 8.60944 14.1822 8.66767 14.1822 8.7259C14.1822 8.84236 14.1822 8.95882 14.1822 9.13352C14.1822 9.19175 14.1822 9.24998 14.1822 9.30821C14.1236 9.54113 13.7131 9.59936 13.6544 9.30821C13.6544 9.24998 13.5958 9.13352 13.5958 9.07529C13.5958 8.55121 13.4785 8.02713 13.244 7.56128C12.8921 7.03721 12.4817 6.68782 12.0126 6.4549ZM15.1791 9.94875C15.0031 9.94875 14.8859 9.77406 14.8859 9.59936C14.8859 9.24998 14.8272 8.90059 14.7686 8.55121C14.534 6.68782 13.0094 5.17382 11.1916 4.88267C10.8984 4.82444 10.6052 4.82444 10.3707 4.76621C10.1948 4.76621 9.96021 4.76621 9.90157 4.53328C9.84293 4.35859 10.0188 4.1839 10.1948 4.1839C10.2534 4.1839 10.312 4.1839 10.312 4.1839C12.7162 4.24213 10.4293 4.1839 10.312 4.1839C12.7749 4.24213 14.8272 5.87259 15.2377 8.31829C15.2963 8.7259 15.355 9.13352 15.355 9.59936C15.4723 9.77406 15.355 9.94875 15.1791 9.94875Z" fill="#ffffff"></path></svg>